<svg xmlns="http://www.w3.org/2000/svg" width="19" height="22" viewBox="0 0 19 22" fill="none">
  <path d="M4.31435 2.27008L5.25504 1.79082C6.13499 1.34096 7.20674 1.65866 7.75869 2.53155L8.85709 4.27021C9.33534 5.02688 9.30032 6.01599 8.77107 6.71394L7.29725 8.65612C7.56782 9.62962 8.06096 10.5507 8.77587 11.4199C9.45872 12.2614 10.3035 12.9575 11.2601 13.4667L13.2425 12.4247C13.9937 12.0292 14.9083 12.1916 15.513 12.8274L16.9217 14.3102C17.6251 15.0504 17.7111 16.2151 17.1245 17.0348L16.4944 17.9161C15.8686 18.7914 14.842 19.2399 13.8007 19.0935C11.3421 18.7469 8.8363 16.9332 6.28328 13.6526C3.72675 10.3658 2.53137 7.41894 2.69749 4.80927C2.76693 3.71119 3.38262 2.74619 4.31435 2.27008Z" fill="white"/>
</svg>