<svg xmlns="http://www.w3.org/2000/svg" width="20" height="20" viewBox="0 0 20 20" fill="none">
  <path d="M20 5.625V16.875C20 17.9102 19.1602 18.75 18.125 18.75H1.875C0.839844 18.75 0 17.9102 0 16.875V5.625C0 4.58984 0.839844 3.75 1.875 3.75H5.3125L5.79297 2.46484C6.06641 1.73437 6.76562 1.25 7.54688 1.25H12.4492C13.2305 1.25 13.9297 1.73437 14.2031 2.46484L14.6875 3.75H18.125C19.1602 3.75 20 4.58984 20 5.625ZM14.6875 11.25C14.6875 8.66406 12.5859 6.5625 10 6.5625C7.41406 6.5625 5.3125 8.66406 5.3125 11.25C5.3125 13.8359 7.41406 15.9375 10 15.9375C12.5859 15.9375 14.6875 13.8359 14.6875 11.25ZM13.4375 11.25C13.4375 13.1445 11.8945 14.6875 10 14.6875C8.10547 14.6875 6.5625 13.1445 6.5625 11.25C6.5625 9.35547 8.10547 7.8125 10 7.8125C11.8945 7.8125 13.4375 9.35547 13.4375 11.25Z" fill="#9DA5AC"/>
</svg>