<svg xmlns="http://www.w3.org/2000/svg" width="52" height="51" viewBox="0 0 52 51" fill="none">
  <ellipse cx="26" cy="25.5" rx="26" ry="25.5" fill="#04AD9C"/>
  <g filter="url(#filter0_d_1_2127)">
    <path d="M16.023 29.9488L16.2068 19.3276C16.2129 18.9755 16.4592 18.642 16.8915 18.4004C17.3238 18.1588 17.9068 18.029 18.5121 18.0395L39.0531 18.3949L34.4425 20.9712L34.2817 30.2647C34.2756 30.6168 34.0293 30.9503 33.597 31.1919C33.1646 31.4335 32.5817 31.5633 31.9764 31.5528L18.2824 31.3159C17.6771 31.3055 17.099 31.1555 16.6752 30.8991C16.2515 30.6428 16.0169 30.3009 16.023 29.9488Z" fill="#FFFFFD"/>
  </g>
  <line x1="21" y1="23.5" x2="30" y2="23.5" stroke="#04A595"/>
  <line x1="21" y1="26.5" x2="28" y2="26.5" stroke="#04AD9C"/>
  <defs>
    <filter id="filter0_d_1_2127" x="12.0229" y="18.0388" width="31.03" height="21.5146" filterUnits="userSpaceOnUse" color-interpolation-filters="sRGB">
      <feFlood flood-opacity="0" result="BackgroundImageFix"/>
      <feColorMatrix in="SourceAlpha" type="matrix" values="0 0 0 0 0 0 0 0 0 0 0 0 0 0 0 0 0 0 127 0" result="hardAlpha"/>
      <feOffset dy="4"/>
      <feGaussianBlur stdDeviation="2"/>
      <feColorMatrix type="matrix" values="0 0 0 0 0 0 0 0 0 0 0 0 0 0 0 0 0 0 0.25 0"/>
      <feBlend mode="normal" in2="BackgroundImageFix" result="effect1_dropShadow_1_2127"/>
      <feBlend mode="normal" in="SourceGraphic" in2="effect1_dropShadow_1_2127" result="shape"/>
    </filter>
  </defs>
</svg>