<svg xmlns="http://www.w3.org/2000/svg" width="43" height="43" viewBox="0 0 43 43" fill="none">
  <circle cx="21.5" cy="21.5" r="21.5" fill="#02AF9C"/>
  <path d="M18 17C18 16.2044 18.3161 15.4413 18.8787 14.8787C19.4413 14.3161 20.2044 14 21 14C21.7956 14 22.5587 14.3161 23.1213 14.8787C23.6839 15.4413 24 16.2044 24 17V22C24 22.7956 23.6839 23.5587 23.1213 24.1213C22.5587 24.6839 21.7956 25 21 25C20.2044 25 19.4413 24.6839 18.8787 24.1213C18.3161 23.5587 18 22.7956 18 22V17Z" fill="#FAFFF7"/>
  <path d="M16.5 20.5C16.6326 20.5 16.7598 20.5527 16.8536 20.6464C16.9473 20.7402 17 20.8674 17 21V22C17 23.0609 17.4214 24.0783 18.1716 24.8284C18.9217 25.5786 19.9391 26 21 26C22.0609 26 23.0783 25.5786 23.8284 24.8284C24.5786 24.0783 25 23.0609 25 22V21C25 20.8674 25.0527 20.7402 25.1464 20.6464C25.2402 20.5527 25.3674 20.5 25.5 20.5C25.6326 20.5 25.7598 20.5527 25.8536 20.6464C25.9473 20.7402 26 20.8674 26 21V22C26 23.2395 25.5396 24.4349 24.7081 25.3541C23.8766 26.2734 22.7333 26.851 21.5 26.975V29H24.5C24.6326 29 24.7598 29.0527 24.8536 29.1464C24.9473 29.2402 25 29.3674 25 29.5C25 29.6326 24.9473 29.7598 24.8536 29.8536C24.7598 29.9473 24.6326 30 24.5 30H17.5C17.3674 30 17.2402 29.9473 17.1464 29.8536C17.0527 29.7598 17 29.6326 17 29.5C17 29.3674 17.0527 29.2402 17.1464 29.1464C17.2402 29.0527 17.3674 29 17.5 29H20.5V26.975C19.2667 26.851 18.1234 26.2734 17.2919 25.3541C16.4604 24.4349 16 23.2395 16 22V21C16 20.8674 16.0527 20.7402 16.1464 20.6464C16.2402 20.5527 16.3674 20.5 16.5 20.5Z" fill="#FAFFF7"/>
</svg>